<mxfile host="app.diagrams.net" modified="2023-05-17T16:13:12.486Z" agent="Mozilla/5.0 (Windows NT 10.0; Win64; x64) AppleWebKit/537.36 (KHTML, like Gecko) Chrome/113.0.0.0 Safari/537.36" etag="30-_d85JGhTnGm7WpEI-" version="21.3.2" type="device">
  <diagram name="PÃ¡gina-1" id="1oBKvZEJ41QhFBfydbBF">
    <mxGraphModel dx="2074" dy="707" grid="1" gridSize="10" guides="1" tooltips="1" connect="1" arrows="1" fold="1" page="1" pageScale="1" pageWidth="827" pageHeight="1169" math="0" shadow="0">
      <root>
        <mxCell id="0" />
        <mxCell id="1" parent="0" />
        <mxCell id="ENu2_47dLtM7vuE1UMY6-9" value="" style="edgeStyle=orthogonalEdgeStyle;rounded=0;orthogonalLoop=1;jettySize=auto;html=1;endArrow=none;endFill=0;" edge="1" parent="1" source="ENu2_47dLtM7vuE1UMY6-4">
          <mxGeometry relative="1" as="geometry">
            <mxPoint x="340" y="380" as="targetPoint" />
          </mxGeometry>
        </mxCell>
        <mxCell id="ENu2_47dLtM7vuE1UMY6-4" value="Usuario" style="rounded=1;arcSize=0;whiteSpace=wrap;html=1;align=center;" vertex="1" parent="1">
          <mxGeometry x="140" y="355" width="110" height="50" as="geometry" />
        </mxCell>
        <mxCell id="ENu2_47dLtM7vuE1UMY6-12" value="" style="edgeStyle=orthogonalEdgeStyle;rounded=0;orthogonalLoop=1;jettySize=auto;html=1;fontFamily=Helvetica;fontSize=12;fontColor=default;endArrow=none;endFill=0;" edge="1" parent="1" source="ENu2_47dLtM7vuE1UMY6-5" target="ENu2_47dLtM7vuE1UMY6-11">
          <mxGeometry relative="1" as="geometry" />
        </mxCell>
        <mxCell id="ENu2_47dLtM7vuE1UMY6-5" value="Personagem" style="rounded=1;arcSize=10;whiteSpace=wrap;html=1;align=center;" vertex="1" parent="1">
          <mxGeometry x="550" y="355" width="110" height="50" as="geometry" />
        </mxCell>
        <mxCell id="ENu2_47dLtM7vuE1UMY6-10" value="" style="edgeStyle=orthogonalEdgeStyle;rounded=0;orthogonalLoop=1;jettySize=auto;html=1;fontFamily=Helvetica;fontSize=12;fontColor=default;endArrow=none;endFill=0;" edge="1" parent="1" source="ENu2_47dLtM7vuE1UMY6-6" target="ENu2_47dLtM7vuE1UMY6-5">
          <mxGeometry relative="1" as="geometry" />
        </mxCell>
        <mxCell id="ENu2_47dLtM7vuE1UMY6-6" value="" style="shape=rhombus;perimeter=rhombusPerimeter;whiteSpace=wrap;html=1;align=center;" vertex="1" parent="1">
          <mxGeometry x="340" y="350" width="120" height="60" as="geometry" />
        </mxCell>
        <mxCell id="ENu2_47dLtM7vuE1UMY6-14" value="" style="edgeStyle=orthogonalEdgeStyle;rounded=0;orthogonalLoop=1;jettySize=auto;html=1;fontFamily=Helvetica;fontSize=12;fontColor=default;endArrow=none;endFill=0;" edge="1" parent="1" source="ENu2_47dLtM7vuE1UMY6-11" target="ENu2_47dLtM7vuE1UMY6-13">
          <mxGeometry relative="1" as="geometry" />
        </mxCell>
        <mxCell id="ENu2_47dLtM7vuE1UMY6-11" value="" style="shape=rhombus;perimeter=rhombusPerimeter;whiteSpace=wrap;html=1;align=center;" vertex="1" parent="1">
          <mxGeometry x="740" y="350" width="120" height="60" as="geometry" />
        </mxCell>
        <mxCell id="ENu2_47dLtM7vuE1UMY6-16" value="" style="edgeStyle=orthogonalEdgeStyle;rounded=0;orthogonalLoop=1;jettySize=auto;html=1;fontFamily=Helvetica;fontSize=12;fontColor=default;endArrow=none;endFill=0;" edge="1" parent="1" source="ENu2_47dLtM7vuE1UMY6-13" target="ENu2_47dLtM7vuE1UMY6-15">
          <mxGeometry relative="1" as="geometry" />
        </mxCell>
        <mxCell id="ENu2_47dLtM7vuE1UMY6-13" value="Classe" style="rounded=1;arcSize=10;whiteSpace=wrap;html=1;align=center;" vertex="1" parent="1">
          <mxGeometry x="745" y="450" width="110" height="50" as="geometry" />
        </mxCell>
        <mxCell id="ENu2_47dLtM7vuE1UMY6-18" value="" style="edgeStyle=orthogonalEdgeStyle;rounded=0;orthogonalLoop=1;jettySize=auto;html=1;fontFamily=Helvetica;fontSize=12;fontColor=default;endArrow=none;endFill=0;" edge="1" parent="1" source="ENu2_47dLtM7vuE1UMY6-15" target="ENu2_47dLtM7vuE1UMY6-17">
          <mxGeometry relative="1" as="geometry" />
        </mxCell>
        <mxCell id="ENu2_47dLtM7vuE1UMY6-15" value="" style="shape=rhombus;perimeter=rhombusPerimeter;whiteSpace=wrap;html=1;align=center;" vertex="1" parent="1">
          <mxGeometry x="740" y="525" width="120" height="60" as="geometry" />
        </mxCell>
        <mxCell id="ENu2_47dLtM7vuE1UMY6-17" value="Habilidade" style="rounded=1;arcSize=10;whiteSpace=wrap;html=1;align=center;" vertex="1" parent="1">
          <mxGeometry x="745" y="610" width="110" height="50" as="geometry" />
        </mxCell>
        <mxCell id="ENu2_47dLtM7vuE1UMY6-45" value="" style="edgeStyle=orthogonalEdgeStyle;rounded=0;orthogonalLoop=1;jettySize=auto;html=1;fontFamily=Helvetica;fontSize=12;fontColor=default;endArrow=none;endFill=0;" edge="1" parent="1" source="ENu2_47dLtM7vuE1UMY6-19" target="ENu2_47dLtM7vuE1UMY6-4">
          <mxGeometry relative="1" as="geometry" />
        </mxCell>
        <mxCell id="ENu2_47dLtM7vuE1UMY6-19" value="id" style="ellipse;whiteSpace=wrap;html=1;align=center;strokeColor=default;fontFamily=Helvetica;fontSize=12;fontColor=default;fillColor=default;" vertex="1" parent="1">
          <mxGeometry x="150" y="270" width="90" height="30" as="geometry" />
        </mxCell>
        <mxCell id="ENu2_47dLtM7vuE1UMY6-27" value="" style="edgeStyle=orthogonalEdgeStyle;rounded=0;orthogonalLoop=1;jettySize=auto;html=1;fontFamily=Helvetica;fontSize=12;fontColor=default;endArrow=none;endFill=0;" edge="1" parent="1" source="ENu2_47dLtM7vuE1UMY6-20" target="ENu2_47dLtM7vuE1UMY6-4">
          <mxGeometry relative="1" as="geometry">
            <Array as="points">
              <mxPoint x="130" y="368" />
              <mxPoint x="130" y="368" />
            </Array>
          </mxGeometry>
        </mxCell>
        <mxCell id="ENu2_47dLtM7vuE1UMY6-20" value="email&lt;br&gt;" style="ellipse;whiteSpace=wrap;html=1;align=center;strokeColor=default;fontFamily=Helvetica;fontSize=12;fontColor=default;fillColor=default;" vertex="1" parent="1">
          <mxGeometry x="30" y="355" width="60" height="25" as="geometry" />
        </mxCell>
        <mxCell id="ENu2_47dLtM7vuE1UMY6-28" value="" style="edgeStyle=orthogonalEdgeStyle;rounded=0;orthogonalLoop=1;jettySize=auto;html=1;fontFamily=Helvetica;fontSize=12;fontColor=default;endArrow=none;endFill=0;" edge="1" parent="1" source="ENu2_47dLtM7vuE1UMY6-21" target="ENu2_47dLtM7vuE1UMY6-4">
          <mxGeometry relative="1" as="geometry">
            <Array as="points">
              <mxPoint x="130" y="398" />
              <mxPoint x="130" y="398" />
            </Array>
          </mxGeometry>
        </mxCell>
        <mxCell id="ENu2_47dLtM7vuE1UMY6-21" value="senha" style="ellipse;whiteSpace=wrap;html=1;align=center;strokeColor=default;fontFamily=Helvetica;fontSize=12;fontColor=default;fillColor=default;" vertex="1" parent="1">
          <mxGeometry x="30" y="385" width="60" height="25" as="geometry" />
        </mxCell>
        <mxCell id="ENu2_47dLtM7vuE1UMY6-29" value="" style="edgeStyle=orthogonalEdgeStyle;rounded=0;orthogonalLoop=1;jettySize=auto;html=1;fontFamily=Helvetica;fontSize=12;fontColor=default;endArrow=none;endFill=0;" edge="1" parent="1" source="ENu2_47dLtM7vuE1UMY6-22" target="ENu2_47dLtM7vuE1UMY6-5">
          <mxGeometry relative="1" as="geometry">
            <Array as="points">
              <mxPoint x="575" y="420" />
              <mxPoint x="575" y="420" />
            </Array>
          </mxGeometry>
        </mxCell>
        <mxCell id="ENu2_47dLtM7vuE1UMY6-22" value="id" style="ellipse;whiteSpace=wrap;html=1;align=center;strokeColor=default;fontFamily=Helvetica;fontSize=12;fontColor=default;fillColor=default;" vertex="1" parent="1">
          <mxGeometry x="550" y="450" width="50" height="25" as="geometry" />
        </mxCell>
        <mxCell id="ENu2_47dLtM7vuE1UMY6-30" value="" style="edgeStyle=orthogonalEdgeStyle;rounded=0;orthogonalLoop=1;jettySize=auto;html=1;fontFamily=Helvetica;fontSize=12;fontColor=default;endArrow=none;endFill=0;" edge="1" parent="1" source="ENu2_47dLtM7vuE1UMY6-23" target="ENu2_47dLtM7vuE1UMY6-5">
          <mxGeometry relative="1" as="geometry">
            <Array as="points">
              <mxPoint x="645" y="420" />
              <mxPoint x="645" y="420" />
            </Array>
          </mxGeometry>
        </mxCell>
        <mxCell id="ENu2_47dLtM7vuE1UMY6-23" value="nome" style="ellipse;whiteSpace=wrap;html=1;align=center;strokeColor=default;fontFamily=Helvetica;fontSize=12;fontColor=default;fillColor=default;" vertex="1" parent="1">
          <mxGeometry x="620" y="450" width="50" height="25" as="geometry" />
        </mxCell>
        <mxCell id="ENu2_47dLtM7vuE1UMY6-33" value="" style="edgeStyle=orthogonalEdgeStyle;rounded=0;orthogonalLoop=1;jettySize=auto;html=1;fontFamily=Helvetica;fontSize=12;fontColor=default;endArrow=none;endFill=0;" edge="1" parent="1" source="ENu2_47dLtM7vuE1UMY6-24" target="ENu2_47dLtM7vuE1UMY6-13">
          <mxGeometry relative="1" as="geometry">
            <Array as="points">
              <mxPoint x="860" y="463" />
              <mxPoint x="860" y="463" />
            </Array>
          </mxGeometry>
        </mxCell>
        <mxCell id="ENu2_47dLtM7vuE1UMY6-24" value="id" style="ellipse;whiteSpace=wrap;html=1;align=center;strokeColor=default;fontFamily=Helvetica;fontSize=12;fontColor=default;fillColor=default;" vertex="1" parent="1">
          <mxGeometry x="890" y="450" width="50" height="25" as="geometry" />
        </mxCell>
        <mxCell id="ENu2_47dLtM7vuE1UMY6-35" value="" style="edgeStyle=orthogonalEdgeStyle;rounded=0;orthogonalLoop=1;jettySize=auto;html=1;fontFamily=Helvetica;fontSize=12;fontColor=default;endArrow=none;endFill=0;" edge="1" parent="1" source="ENu2_47dLtM7vuE1UMY6-25" target="ENu2_47dLtM7vuE1UMY6-13">
          <mxGeometry relative="1" as="geometry">
            <Array as="points">
              <mxPoint x="860" y="488" />
              <mxPoint x="860" y="488" />
            </Array>
          </mxGeometry>
        </mxCell>
        <mxCell id="ENu2_47dLtM7vuE1UMY6-25" value="nome" style="ellipse;whiteSpace=wrap;html=1;align=center;strokeColor=default;fontFamily=Helvetica;fontSize=12;fontColor=default;fillColor=default;" vertex="1" parent="1">
          <mxGeometry x="890" y="475" width="50" height="25" as="geometry" />
        </mxCell>
        <mxCell id="ENu2_47dLtM7vuE1UMY6-32" value="" style="edgeStyle=orthogonalEdgeStyle;rounded=0;orthogonalLoop=1;jettySize=auto;html=1;fontFamily=Helvetica;fontSize=12;fontColor=default;endArrow=none;endFill=0;" edge="1" parent="1" source="ENu2_47dLtM7vuE1UMY6-26" target="ENu2_47dLtM7vuE1UMY6-13">
          <mxGeometry relative="1" as="geometry" />
        </mxCell>
        <mxCell id="ENu2_47dLtM7vuE1UMY6-26" value="&lt;font style=&quot;font-size: 9px;&quot;&gt;descriÃ§Ã£o&lt;/font&gt;" style="ellipse;whiteSpace=wrap;html=1;align=center;strokeColor=default;fontFamily=Helvetica;fontSize=12;fontColor=default;fillColor=default;" vertex="1" parent="1">
          <mxGeometry x="670" y="470" width="50" height="25" as="geometry" />
        </mxCell>
        <mxCell id="ENu2_47dLtM7vuE1UMY6-31" value="N" style="text;html=1;align=center;verticalAlign=middle;resizable=0;points=[];autosize=1;strokeColor=none;fillColor=none;fontSize=12;fontFamily=Helvetica;fontColor=default;" vertex="1" parent="1">
          <mxGeometry x="660" y="330" width="30" height="30" as="geometry" />
        </mxCell>
        <mxCell id="ENu2_47dLtM7vuE1UMY6-38" value="" style="edgeStyle=orthogonalEdgeStyle;rounded=0;orthogonalLoop=1;jettySize=auto;html=1;fontFamily=Helvetica;fontSize=12;fontColor=default;endArrow=none;endFill=0;" edge="1" parent="1" source="ENu2_47dLtM7vuE1UMY6-36" target="ENu2_47dLtM7vuE1UMY6-17">
          <mxGeometry relative="1" as="geometry">
            <Array as="points">
              <mxPoint x="770" y="660" />
              <mxPoint x="770" y="660" />
            </Array>
          </mxGeometry>
        </mxCell>
        <mxCell id="ENu2_47dLtM7vuE1UMY6-36" value="id" style="ellipse;whiteSpace=wrap;html=1;align=center;strokeColor=default;fontFamily=Helvetica;fontSize=12;fontColor=default;fillColor=default;" vertex="1" parent="1">
          <mxGeometry x="745" y="680" width="50" height="25" as="geometry" />
        </mxCell>
        <mxCell id="ENu2_47dLtM7vuE1UMY6-39" value="" style="edgeStyle=orthogonalEdgeStyle;rounded=0;orthogonalLoop=1;jettySize=auto;html=1;fontFamily=Helvetica;fontSize=12;fontColor=default;endArrow=none;endFill=0;" edge="1" parent="1" source="ENu2_47dLtM7vuE1UMY6-37">
          <mxGeometry relative="1" as="geometry">
            <mxPoint x="830" y="660" as="targetPoint" />
          </mxGeometry>
        </mxCell>
        <mxCell id="ENu2_47dLtM7vuE1UMY6-37" value="nome" style="ellipse;whiteSpace=wrap;html=1;align=center;strokeColor=default;fontFamily=Helvetica;fontSize=12;fontColor=default;fillColor=default;" vertex="1" parent="1">
          <mxGeometry x="805" y="680" width="50" height="25" as="geometry" />
        </mxCell>
        <mxCell id="ENu2_47dLtM7vuE1UMY6-40" value="N" style="text;html=1;align=center;verticalAlign=middle;resizable=0;points=[];autosize=1;strokeColor=none;fillColor=none;fontSize=12;fontFamily=Helvetica;fontColor=default;" vertex="1" parent="1">
          <mxGeometry x="840" y="500" width="30" height="30" as="geometry" />
        </mxCell>
        <mxCell id="ENu2_47dLtM7vuE1UMY6-41" value="N" style="text;html=1;align=center;verticalAlign=middle;resizable=0;points=[];autosize=1;strokeColor=none;fillColor=none;fontSize=12;fontFamily=Helvetica;fontColor=default;" vertex="1" parent="1">
          <mxGeometry x="840" y="570" width="30" height="30" as="geometry" />
        </mxCell>
        <mxCell id="ENu2_47dLtM7vuE1UMY6-42" value="1" style="text;html=1;align=center;verticalAlign=middle;resizable=0;points=[];autosize=1;strokeColor=none;fillColor=none;fontSize=12;fontFamily=Helvetica;fontColor=default;" vertex="1" parent="1">
          <mxGeometry x="745" y="420" width="30" height="30" as="geometry" />
        </mxCell>
        <mxCell id="ENu2_47dLtM7vuE1UMY6-43" value="1" style="text;html=1;align=center;verticalAlign=middle;resizable=0;points=[];autosize=1;strokeColor=none;fillColor=none;fontSize=12;fontFamily=Helvetica;fontColor=default;" vertex="1" parent="1">
          <mxGeometry x="480" y="325" width="30" height="30" as="geometry" />
        </mxCell>
        <mxCell id="ENu2_47dLtM7vuE1UMY6-44" value="1" style="text;html=1;align=center;verticalAlign=middle;resizable=0;points=[];autosize=1;strokeColor=none;fillColor=none;fontSize=12;fontFamily=Helvetica;fontColor=default;" vertex="1" parent="1">
          <mxGeometry x="280" y="325" width="30" height="30" as="geometry" />
        </mxCell>
        <mxCell id="ENu2_47dLtM7vuE1UMY6-47" value="" style="swimlane;startSize=0;strokeColor=default;fontFamily=Helvetica;fontSize=12;fontColor=default;fillColor=default;html=1;" vertex="1" parent="1">
          <mxGeometry y="230" width="1015" height="965" as="geometry" />
        </mxCell>
        <mxCell id="ENu2_47dLtM7vuE1UMY6-48" value="Usuario" style="swimlane;fontStyle=0;childLayout=stackLayout;horizontal=1;startSize=26;horizontalStack=0;resizeParent=1;resizeParentMax=0;resizeLast=0;collapsible=1;marginBottom=0;align=center;fontSize=14;strokeColor=default;fontFamily=Helvetica;fontColor=default;fillColor=default;html=1;" vertex="1" parent="1">
          <mxGeometry x="140" y="750" width="160" height="146" as="geometry" />
        </mxCell>
        <mxCell id="ENu2_47dLtM7vuE1UMY6-49" value="Usuario(PK)" style="text;strokeColor=none;fillColor=none;spacingLeft=4;spacingRight=4;overflow=hidden;rotatable=0;points=[[0,0.5],[1,0.5]];portConstraint=eastwest;fontSize=12;whiteSpace=wrap;html=1;fontFamily=Helvetica;fontColor=default;" vertex="1" parent="ENu2_47dLtM7vuE1UMY6-48">
          <mxGeometry y="26" width="160" height="30" as="geometry" />
        </mxCell>
        <mxCell id="ENu2_47dLtM7vuE1UMY6-56" value="Email" style="text;strokeColor=none;fillColor=none;spacingLeft=4;spacingRight=4;overflow=hidden;rotatable=0;points=[[0,0.5],[1,0.5]];portConstraint=eastwest;fontSize=12;whiteSpace=wrap;html=1;fontFamily=Helvetica;fontColor=default;" vertex="1" parent="ENu2_47dLtM7vuE1UMY6-48">
          <mxGeometry y="56" width="160" height="30" as="geometry" />
        </mxCell>
        <mxCell id="ENu2_47dLtM7vuE1UMY6-50" value="Email" style="text;strokeColor=none;fillColor=none;spacingLeft=4;spacingRight=4;overflow=hidden;rotatable=0;points=[[0,0.5],[1,0.5]];portConstraint=eastwest;fontSize=12;whiteSpace=wrap;html=1;fontFamily=Helvetica;fontColor=default;" vertex="1" parent="ENu2_47dLtM7vuE1UMY6-48">
          <mxGeometry y="86" width="160" height="30" as="geometry" />
        </mxCell>
        <mxCell id="ENu2_47dLtM7vuE1UMY6-51" value="Senha" style="text;strokeColor=none;fillColor=none;spacingLeft=4;spacingRight=4;overflow=hidden;rotatable=0;points=[[0,0.5],[1,0.5]];portConstraint=eastwest;fontSize=12;whiteSpace=wrap;html=1;fontFamily=Helvetica;fontColor=default;" vertex="1" parent="ENu2_47dLtM7vuE1UMY6-48">
          <mxGeometry y="116" width="160" height="30" as="geometry" />
        </mxCell>
        <mxCell id="ENu2_47dLtM7vuE1UMY6-52" value="Personagem" style="swimlane;fontStyle=0;childLayout=stackLayout;horizontal=1;startSize=26;horizontalStack=0;resizeParent=1;resizeParentMax=0;resizeLast=0;collapsible=1;marginBottom=0;align=center;fontSize=14;strokeColor=default;fontFamily=Helvetica;fontColor=default;fillColor=default;html=1;" vertex="1" parent="1">
          <mxGeometry x="140" y="990" width="160" height="146" as="geometry" />
        </mxCell>
        <mxCell id="ENu2_47dLtM7vuE1UMY6-53" value="PersonagemId(PK)" style="text;strokeColor=none;fillColor=none;spacingLeft=4;spacingRight=4;overflow=hidden;rotatable=0;points=[[0,0.5],[1,0.5]];portConstraint=eastwest;fontSize=12;whiteSpace=wrap;html=1;fontFamily=Helvetica;fontColor=default;" vertex="1" parent="ENu2_47dLtM7vuE1UMY6-52">
          <mxGeometry y="26" width="160" height="30" as="geometry" />
        </mxCell>
        <mxCell id="ENu2_47dLtM7vuE1UMY6-54" value="NomePersonagem" style="text;strokeColor=none;fillColor=none;spacingLeft=4;spacingRight=4;overflow=hidden;rotatable=0;points=[[0,0.5],[1,0.5]];portConstraint=eastwest;fontSize=12;whiteSpace=wrap;html=1;fontFamily=Helvetica;fontColor=default;" vertex="1" parent="ENu2_47dLtM7vuE1UMY6-52">
          <mxGeometry y="56" width="160" height="30" as="geometry" />
        </mxCell>
        <mxCell id="ENu2_47dLtM7vuE1UMY6-55" value="Usuario(FK)" style="text;strokeColor=none;fillColor=none;spacingLeft=4;spacingRight=4;overflow=hidden;rotatable=0;points=[[0,0.5],[1,0.5]];portConstraint=eastwest;fontSize=12;whiteSpace=wrap;html=1;fontFamily=Helvetica;fontColor=default;" vertex="1" parent="ENu2_47dLtM7vuE1UMY6-52">
          <mxGeometry y="86" width="160" height="30" as="geometry" />
        </mxCell>
        <mxCell id="ENu2_47dLtM7vuE1UMY6-64" value="ClasseId(FK)" style="text;strokeColor=none;fillColor=none;spacingLeft=4;spacingRight=4;overflow=hidden;rotatable=0;points=[[0,0.5],[1,0.5]];portConstraint=eastwest;fontSize=12;whiteSpace=wrap;html=1;fontFamily=Helvetica;fontColor=default;" vertex="1" parent="ENu2_47dLtM7vuE1UMY6-52">
          <mxGeometry y="116" width="160" height="30" as="geometry" />
        </mxCell>
        <mxCell id="ENu2_47dLtM7vuE1UMY6-57" style="edgeStyle=orthogonalEdgeStyle;rounded=0;orthogonalLoop=1;jettySize=auto;html=1;entryX=0;entryY=0.5;entryDx=0;entryDy=0;fontFamily=Helvetica;fontSize=12;fontColor=default;endArrow=none;endFill=0;" edge="1" parent="1" source="ENu2_47dLtM7vuE1UMY6-49" target="ENu2_47dLtM7vuE1UMY6-55">
          <mxGeometry relative="1" as="geometry" />
        </mxCell>
        <mxCell id="ENu2_47dLtM7vuE1UMY6-58" value="1" style="text;html=1;align=center;verticalAlign=middle;resizable=0;points=[];autosize=1;strokeColor=none;fillColor=none;fontSize=12;fontFamily=Helvetica;fontColor=default;" vertex="1" parent="1">
          <mxGeometry x="90" y="820" width="30" height="30" as="geometry" />
        </mxCell>
        <mxCell id="ENu2_47dLtM7vuE1UMY6-59" value="1" style="text;html=1;align=center;verticalAlign=middle;resizable=0;points=[];autosize=1;strokeColor=none;fillColor=none;fontSize=12;fontFamily=Helvetica;fontColor=default;" vertex="1" parent="1">
          <mxGeometry x="90" y="1010" width="30" height="30" as="geometry" />
        </mxCell>
        <mxCell id="ENu2_47dLtM7vuE1UMY6-60" value="Classe(PK)" style="swimlane;fontStyle=0;childLayout=stackLayout;horizontal=1;startSize=26;horizontalStack=0;resizeParent=1;resizeParentMax=0;resizeLast=0;collapsible=1;marginBottom=0;align=center;fontSize=14;strokeColor=default;fontFamily=Helvetica;fontColor=default;fillColor=default;html=1;" vertex="1" parent="1">
          <mxGeometry x="440" y="750" width="160" height="116" as="geometry" />
        </mxCell>
        <mxCell id="ENu2_47dLtM7vuE1UMY6-61" value="ClasseId(PK)" style="text;strokeColor=none;fillColor=none;spacingLeft=4;spacingRight=4;overflow=hidden;rotatable=0;points=[[0,0.5],[1,0.5]];portConstraint=eastwest;fontSize=12;whiteSpace=wrap;html=1;fontFamily=Helvetica;fontColor=default;" vertex="1" parent="ENu2_47dLtM7vuE1UMY6-60">
          <mxGeometry y="26" width="160" height="30" as="geometry" />
        </mxCell>
        <mxCell id="ENu2_47dLtM7vuE1UMY6-62" value="Nome" style="text;strokeColor=none;fillColor=none;spacingLeft=4;spacingRight=4;overflow=hidden;rotatable=0;points=[[0,0.5],[1,0.5]];portConstraint=eastwest;fontSize=12;whiteSpace=wrap;html=1;fontFamily=Helvetica;fontColor=default;" vertex="1" parent="ENu2_47dLtM7vuE1UMY6-60">
          <mxGeometry y="56" width="160" height="30" as="geometry" />
        </mxCell>
        <mxCell id="ENu2_47dLtM7vuE1UMY6-63" value="Descricao" style="text;strokeColor=none;fillColor=none;spacingLeft=4;spacingRight=4;overflow=hidden;rotatable=0;points=[[0,0.5],[1,0.5]];portConstraint=eastwest;fontSize=12;whiteSpace=wrap;html=1;fontFamily=Helvetica;fontColor=default;" vertex="1" parent="ENu2_47dLtM7vuE1UMY6-60">
          <mxGeometry y="86" width="160" height="30" as="geometry" />
        </mxCell>
        <mxCell id="ENu2_47dLtM7vuE1UMY6-66" style="edgeStyle=orthogonalEdgeStyle;rounded=0;orthogonalLoop=1;jettySize=auto;html=1;entryX=1;entryY=0.5;entryDx=0;entryDy=0;fontFamily=Helvetica;fontSize=12;fontColor=default;endArrow=none;endFill=0;" edge="1" parent="1" source="ENu2_47dLtM7vuE1UMY6-61" target="ENu2_47dLtM7vuE1UMY6-64">
          <mxGeometry relative="1" as="geometry" />
        </mxCell>
        <mxCell id="ENu2_47dLtM7vuE1UMY6-67" value="1" style="text;html=1;align=center;verticalAlign=middle;resizable=0;points=[];autosize=1;strokeColor=none;fillColor=none;fontSize=12;fontFamily=Helvetica;fontColor=default;" vertex="1" parent="1">
          <mxGeometry x="340" y="780" width="30" height="30" as="geometry" />
        </mxCell>
        <mxCell id="ENu2_47dLtM7vuE1UMY6-68" value="N" style="text;html=1;align=center;verticalAlign=middle;resizable=0;points=[];autosize=1;strokeColor=none;fillColor=none;fontSize=12;fontFamily=Helvetica;fontColor=default;" vertex="1" parent="1">
          <mxGeometry x="370" y="1100" width="30" height="30" as="geometry" />
        </mxCell>
        <mxCell id="ENu2_47dLtM7vuE1UMY6-69" value="Habilidade" style="swimlane;fontStyle=0;childLayout=stackLayout;horizontal=1;startSize=26;horizontalStack=0;resizeParent=1;resizeParentMax=0;resizeLast=0;collapsible=1;marginBottom=0;align=center;fontSize=14;strokeColor=default;fontFamily=Helvetica;fontColor=default;fillColor=default;html=1;" vertex="1" parent="1">
          <mxGeometry x="440" y="1030" width="160" height="86" as="geometry" />
        </mxCell>
        <mxCell id="ENu2_47dLtM7vuE1UMY6-70" value="HabilidadeId(PK)" style="text;strokeColor=none;fillColor=none;spacingLeft=4;spacingRight=4;overflow=hidden;rotatable=0;points=[[0,0.5],[1,0.5]];portConstraint=eastwest;fontSize=12;whiteSpace=wrap;html=1;fontFamily=Helvetica;fontColor=default;" vertex="1" parent="ENu2_47dLtM7vuE1UMY6-69">
          <mxGeometry y="26" width="160" height="30" as="geometry" />
        </mxCell>
        <mxCell id="ENu2_47dLtM7vuE1UMY6-71" value="Item 2" style="text;strokeColor=none;fillColor=none;spacingLeft=4;spacingRight=4;overflow=hidden;rotatable=0;points=[[0,0.5],[1,0.5]];portConstraint=eastwest;fontSize=12;whiteSpace=wrap;html=1;fontFamily=Helvetica;fontColor=default;" vertex="1" parent="ENu2_47dLtM7vuE1UMY6-69">
          <mxGeometry y="56" width="160" height="30" as="geometry" />
        </mxCell>
        <mxCell id="ENu2_47dLtM7vuE1UMY6-73" value="ClassesHabilidades" style="swimlane;fontStyle=0;childLayout=stackLayout;horizontal=1;startSize=26;horizontalStack=0;resizeParent=1;resizeParentMax=0;resizeLast=0;collapsible=1;marginBottom=0;align=center;fontSize=14;strokeColor=default;fontFamily=Helvetica;fontColor=default;fillColor=default;html=1;" vertex="1" parent="1">
          <mxGeometry x="695" y="896" width="160" height="86" as="geometry" />
        </mxCell>
        <mxCell id="ENu2_47dLtM7vuE1UMY6-74" value="ClasseId(FK)" style="text;strokeColor=none;fillColor=none;spacingLeft=4;spacingRight=4;overflow=hidden;rotatable=0;points=[[0,0.5],[1,0.5]];portConstraint=eastwest;fontSize=12;whiteSpace=wrap;html=1;fontFamily=Helvetica;fontColor=default;" vertex="1" parent="ENu2_47dLtM7vuE1UMY6-73">
          <mxGeometry y="26" width="160" height="30" as="geometry" />
        </mxCell>
        <mxCell id="ENu2_47dLtM7vuE1UMY6-75" value="HabilidadeId(FK)" style="text;strokeColor=none;fillColor=none;spacingLeft=4;spacingRight=4;overflow=hidden;rotatable=0;points=[[0,0.5],[1,0.5]];portConstraint=eastwest;fontSize=12;whiteSpace=wrap;html=1;fontFamily=Helvetica;fontColor=default;" vertex="1" parent="ENu2_47dLtM7vuE1UMY6-73">
          <mxGeometry y="56" width="160" height="30" as="geometry" />
        </mxCell>
        <mxCell id="ENu2_47dLtM7vuE1UMY6-78" style="edgeStyle=orthogonalEdgeStyle;rounded=0;orthogonalLoop=1;jettySize=auto;html=1;fontFamily=Helvetica;fontSize=12;fontColor=default;endArrow=none;endFill=0;" edge="1" parent="1" source="ENu2_47dLtM7vuE1UMY6-61" target="ENu2_47dLtM7vuE1UMY6-74">
          <mxGeometry relative="1" as="geometry" />
        </mxCell>
        <mxCell id="ENu2_47dLtM7vuE1UMY6-79" value="1" style="text;html=1;align=center;verticalAlign=middle;resizable=0;points=[];autosize=1;strokeColor=none;fillColor=none;fontSize=12;fontFamily=Helvetica;fontColor=default;" vertex="1" parent="1">
          <mxGeometry x="640" y="780" width="30" height="30" as="geometry" />
        </mxCell>
        <mxCell id="ENu2_47dLtM7vuE1UMY6-80" value="N" style="text;html=1;align=center;verticalAlign=middle;resizable=0;points=[];autosize=1;strokeColor=none;fillColor=none;fontSize=12;fontFamily=Helvetica;fontColor=default;" vertex="1" parent="1">
          <mxGeometry x="640" y="910" width="30" height="30" as="geometry" />
        </mxCell>
        <mxCell id="ENu2_47dLtM7vuE1UMY6-81" value="N" style="text;html=1;align=center;verticalAlign=middle;resizable=0;points=[];autosize=1;strokeColor=none;fillColor=none;fontSize=12;fontFamily=Helvetica;fontColor=default;" vertex="1" parent="1">
          <mxGeometry x="640" y="960" width="30" height="30" as="geometry" />
        </mxCell>
        <mxCell id="ENu2_47dLtM7vuE1UMY6-82" style="edgeStyle=orthogonalEdgeStyle;rounded=0;orthogonalLoop=1;jettySize=auto;html=1;entryX=0;entryY=0.5;entryDx=0;entryDy=0;fontFamily=Helvetica;fontSize=12;fontColor=default;endArrow=none;endFill=0;" edge="1" parent="1" source="ENu2_47dLtM7vuE1UMY6-70" target="ENu2_47dLtM7vuE1UMY6-75">
          <mxGeometry relative="1" as="geometry" />
        </mxCell>
        <mxCell id="ENu2_47dLtM7vuE1UMY6-83" value="1" style="text;html=1;align=center;verticalAlign=middle;resizable=0;points=[];autosize=1;strokeColor=none;fillColor=none;fontSize=12;fontFamily=Helvetica;fontColor=default;" vertex="1" parent="1">
          <mxGeometry x="640" y="1040" width="30" height="30" as="geometry" />
        </mxCell>
      </root>
    </mxGraphModel>
  </diagram>
</mxfile>
